<svg width="31" height="30" viewBox="0 0 31 30" fill="none" xmlns="http://www.w3.org/2000/svg">
<g clip-path="url(#clip0_3_1393)">
<path d="M6.125 18.75C3.01953 18.75 0.5 16.2305 0.5 13.125C0.5 10.6348 2.11719 8.51953 4.36133 7.78125C4.29102 7.38867 4.25 6.97852 4.25 6.5625C4.25 2.93555 7.18555 0 10.8125 0C13.3379 0 15.5293 1.42383 16.625 3.51562C17.4863 2.51367 18.7637 1.875 20.1875 1.875C22.7773 1.875 24.875 3.97266 24.875 6.5625C24.875 6.88477 24.8398 7.19531 24.7812 7.5H24.875C27.9805 7.5 30.5 10.0195 30.5 13.125C30.5 16.2305 27.9805 18.75 24.875 18.75H6.125ZM5.72656 21.7969C5.80273 21.6504 5.95508 21.5625 6.125 21.5625C6.29492 21.5625 6.44141 21.6504 6.52344 21.7969L8.58008 25.582C8.82031 26.0215 8.94336 26.5078 8.94336 27.0059V27.1816C8.94336 28.7344 7.68359 29.9941 6.13086 29.9941C4.57812 29.9941 3.31836 28.7344 3.31836 27.1816V27.0059C3.31836 26.5078 3.44141 26.0156 3.68164 25.582L5.72656 21.7969ZM15.1016 21.7969C15.1777 21.6504 15.3301 21.5625 15.5 21.5625C15.6699 21.5625 15.8164 21.6504 15.8984 21.7969L17.9551 25.582C18.1953 26.0215 18.3184 26.5078 18.3184 27.0059V27.1816C18.3184 28.7344 17.0586 29.9941 15.5059 29.9941C13.9531 29.9941 12.6934 28.7344 12.6934 27.1816V27.0059C12.6934 26.5078 12.8164 26.0156 13.0566 25.582L15.1016 21.7969ZM22.4199 25.582L24.4766 21.7969C24.5527 21.6504 24.7051 21.5625 24.875 21.5625C25.0449 21.5625 25.1914 21.6504 25.2734 21.7969L27.3301 25.582C27.5703 26.0215 27.6934 26.5078 27.6934 27.0059V27.1816C27.6934 28.7344 26.4336 29.9941 24.8809 29.9941C23.3281 29.9941 22.0684 28.7344 22.0684 27.1816V27.0059C22.0684 26.5078 22.1914 26.0156 22.4316 25.582H22.4199Z" fill="black"/>
</g>
<defs>
<clipPath id="clip0_3_1393">
<rect width="30" height="30" fill="white" transform="translate(0.5)"/>
</clipPath>
</defs>
</svg>
