<svg width="31" height="30" viewBox="0 0 31 30" fill="none" xmlns="http://www.w3.org/2000/svg">
<path d="M23 12.5C22.6685 12.5 22.3505 12.3683 22.1161 12.1339C21.8817 11.8995 21.75 11.5815 21.75 11.25C21.75 10.9185 21.8817 10.6005 22.1161 10.3661C22.3505 10.1317 22.6685 10 23 10C23.3315 10 23.6495 10.1317 23.8839 10.3661C24.1183 10.6005 24.25 10.9185 24.25 11.25C24.25 11.5815 24.1183 11.8995 23.8839 12.1339C23.6495 12.3683 23.3315 12.5 23 12.5ZM15.5 12.5H8V6.25H15.5M25.2125 9.0375L25.225 9.025L20.575 4.375L19.25 5.7L21.8875 8.3375C20.7125 8.75 19.875 9.9125 19.875 11.25C19.875 11.6604 19.9558 12.0667 20.1129 12.4459C20.2699 12.825 20.5001 13.1695 20.7903 13.4597C21.3763 14.0458 22.1712 14.375 23 14.375C23.45 14.375 23.8625 14.275 24.25 14.1125V23.125C24.25 23.4565 24.1183 23.7745 23.8839 24.0089C23.6495 24.2433 23.3315 24.375 23 24.375C22.6685 24.375 22.3505 24.2433 22.1161 24.0089C21.8817 23.7745 21.75 23.4565 21.75 23.125V17.5C21.75 16.837 21.4866 16.2011 21.0178 15.7322C20.5489 15.2634 19.913 15 19.25 15H18V6.25C18 5.58696 17.7366 4.95107 17.2678 4.48223C16.7989 4.01339 16.163 3.75 15.5 3.75H8C6.6125 3.75 5.5 4.8625 5.5 6.25V26.25H18V16.875H19.875V23.125C19.875 23.9538 20.2042 24.7487 20.7903 25.3347C21.3763 25.9208 22.1712 26.25 23 26.25C23.4104 26.25 23.8167 26.1692 24.1959 26.0121C24.575 25.8551 24.9195 25.6249 25.2097 25.3347C25.4999 25.0445 25.7301 24.7 25.8871 24.3209C26.0442 23.9417 26.125 23.5354 26.125 23.125V11.25C26.125 10.3875 25.775 9.6 25.2125 9.0375Z" fill="black"/>
</svg>
