<svg width="33" height="34" viewBox="0 0 33 34" fill="none" xmlns="http://www.w3.org/2000/svg">
<path d="M16.5 3.5166C12.7091 3.5166 9.625 6.60073 9.625 10.3916V13.1416H8.25C6.73337 13.1416 5.5 14.375 5.5 15.8916V28.2666C5.5 29.7832 6.73337 31.0166 8.25 31.0166H24.75C26.2666 31.0166 27.5 29.7832 27.5 28.2666V15.8916C27.5 14.375 26.2666 13.1416 24.75 13.1416H23.375V10.3916C23.375 6.60073 20.2909 3.5166 16.5 3.5166ZM12.375 10.3916C12.375 8.11735 14.2257 6.2666 16.5 6.2666C18.7742 6.2666 20.625 8.11735 20.625 10.3916V13.1416H12.375V10.3916ZM24.7527 28.2666H17.875V25.1344C18.6931 24.6572 19.25 23.78 19.25 22.7666C19.25 21.25 18.0166 20.0166 16.5 20.0166C14.9834 20.0166 13.75 21.25 13.75 22.7666C13.75 23.7786 14.3069 24.6572 15.125 25.1344V28.2666H8.25V15.8916H24.75L24.7527 28.2666Z" fill="black"/>
</svg>
