<svg width="25" height="24" viewBox="0 0 25 24" fill="none" xmlns="http://www.w3.org/2000/svg">
<g clip-path="url(#clip0_3_1401)">
<path d="M12.5 5.68867C9.0144 5.68867 6.18878 8.5143 6.18878 11.998C6.18878 15.4837 9.0144 18.3093 12.5 18.3093C15.9857 18.3093 18.8113 15.4837 18.8113 11.998C18.8113 8.5143 15.9857 5.68867 12.5 5.68867ZM11.1425 4.5393H13.8594C13.985 4.5393 14.1013 4.47742 14.1744 4.3743C14.2457 4.27305 14.2625 4.13992 14.2194 4.0218L12.86 0.343047C12.8038 0.191172 12.6613 0.0917969 12.5 0.0917969C12.3388 0.0917969 12.1963 0.193047 12.14 0.343047L10.7807 4.02367C10.7375 4.1418 10.7544 4.27305 10.8257 4.37617C10.8988 4.4793 11.0169 4.5393 11.1425 4.5393ZM18.7363 7.68555C18.8075 7.75867 18.9069 7.79805 19.0063 7.79805C19.0288 7.79805 19.0513 7.79617 19.0738 7.79242C19.1975 7.76992 19.3007 7.6893 19.355 7.57492L20.9975 4.01055C21.065 3.8643 21.0332 3.69367 20.9207 3.5793C20.8063 3.46492 20.6338 3.43492 20.4875 3.50055L16.925 5.14492C16.8107 5.19742 16.73 5.30242 16.7075 5.42617C16.685 5.54992 16.7263 5.67555 16.8125 5.76555L18.7363 7.68555ZM24.1588 11.6399L20.4763 10.2824C20.3582 10.2393 20.2269 10.2562 20.1238 10.3274C20.0207 10.3987 19.9607 10.5149 19.9607 10.6405L19.9625 13.3574C19.9625 13.483 20.0244 13.6012 20.1275 13.6724C20.1932 13.7155 20.27 13.7399 20.3469 13.7399C20.3919 13.7399 20.4369 13.7324 20.48 13.7155L24.1625 12.358C24.3125 12.3037 24.4138 12.1593 24.4138 11.9962C24.41 11.8387 24.3107 11.6962 24.1588 11.6399ZM19.355 16.4249C19.3291 16.3687 19.29 16.3196 19.2411 16.2817C19.1921 16.2438 19.1347 16.2184 19.0738 16.2074C18.95 16.1868 18.8225 16.2262 18.7363 16.3143L16.8144 18.2362C16.7263 18.3243 16.685 18.4518 16.7075 18.5755C16.73 18.6974 16.8107 18.8043 16.925 18.8568L20.4894 20.4993C20.54 20.5237 20.5944 20.533 20.6507 20.533C20.75 20.533 20.8475 20.4937 20.9207 20.4205C21.035 20.3062 21.065 20.1355 20.9975 19.9893L19.355 16.4249ZM13.8575 19.4587L11.1407 19.4605C11.015 19.4605 10.8988 19.5224 10.8275 19.6255C10.7563 19.7287 10.7394 19.8599 10.7807 19.9762L12.14 23.6587C12.1963 23.8087 12.3388 23.9099 12.5 23.9099C12.6613 23.9099 12.8038 23.8087 12.86 23.6587L14.2194 19.9762C14.2625 19.858 14.2457 19.7268 14.1744 19.6237C14.1013 19.5205 13.985 19.4587 13.8575 19.4587ZM6.26378 16.3143C6.17565 16.2262 6.05003 16.1868 5.92628 16.2074C5.80253 16.2299 5.69753 16.3105 5.64503 16.4249L4.00253 19.9893C3.93503 20.1355 3.96691 20.308 4.08128 20.4205C4.13664 20.476 4.20768 20.5131 4.28481 20.5268C4.36194 20.5406 4.44143 20.5303 4.51253 20.4974L8.0769 18.853C8.13313 18.8271 8.18226 18.788 8.22013 18.7391C8.258 18.6901 8.28348 18.6327 8.2944 18.5718C8.3169 18.448 8.27565 18.3224 8.18753 18.2343L6.26378 16.3143ZM4.65691 13.7418C4.73378 13.7418 4.81066 13.7174 4.87628 13.6724C4.97941 13.6012 5.04128 13.483 5.04128 13.3574L5.0394 10.6405C5.03942 10.5788 5.02452 10.518 4.99598 10.4632C4.96743 10.4085 4.92609 10.3614 4.87547 10.3261C4.82485 10.2907 4.76644 10.2681 4.70521 10.2602C4.64398 10.2523 4.58174 10.2593 4.52378 10.2805L0.84128 11.6399C0.767547 11.667 0.703894 11.716 0.658926 11.7804C0.613958 11.8447 0.589844 11.9214 0.589844 11.9999C0.589844 12.0785 0.613958 12.1551 0.658926 12.2195C0.703894 12.2839 0.767547 12.3329 0.84128 12.3599L4.52566 13.7174C4.56878 13.7343 4.61191 13.7418 4.65691 13.7418ZM5.64691 7.57492C5.67287 7.63111 5.71202 7.68019 5.76102 7.718C5.81003 7.7558 5.86744 7.78122 5.92837 7.79208C5.9893 7.80294 6.05196 7.79893 6.11101 7.78038C6.17005 7.76183 6.22375 7.7293 6.26753 7.68555L8.18753 5.76367C8.27565 5.67367 8.31503 5.54805 8.29253 5.4243C8.27003 5.30242 8.1894 5.19742 8.07503 5.14492L4.50878 3.50242C4.36253 3.43492 4.19191 3.4668 4.07753 3.58117C3.96316 3.69555 3.93316 3.86617 4.00066 4.01242L5.64691 7.57492Z" fill="#FCC21B"/>
</g>
<defs>
<clipPath id="clip0_3_1401">
<rect width="24" height="24" fill="white" transform="translate(0.5)"/>
</clipPath>
</defs>
</svg>
