<svg width="12" height="12" viewBox="0 0 12 12" fill="none" xmlns="http://www.w3.org/2000/svg">
<path d="M2 4C2 3.46957 2.21071 2.96086 2.58579 2.58579C2.96086 2.21071 3.46957 2 4 2H8C8.53043 2 9.03914 2.21071 9.41421 2.58579C9.78929 2.96086 10 3.46957 10 4V8C10 8.53043 9.78929 9.03914 9.41421 9.41421C9.03914 9.78929 8.53043 10 8 10H4C3.46957 10 2.96086 9.78929 2.58579 9.41421C2.21071 9.03914 2 8.53043 2 8V4ZM4 3.5C3.86739 3.5 3.74021 3.55268 3.64645 3.64645C3.55268 3.74021 3.5 3.86739 3.5 4V8C3.5 8.13261 3.55268 8.25979 3.64645 8.35355C3.74021 8.44732 3.86739 8.5 4 8.5H8C8.13261 8.5 8.25979 8.44732 8.35355 8.35355C8.44732 8.25979 8.5 8.13261 8.5 8V4C8.5 3.86739 8.44732 3.74021 8.35355 3.64645C8.25979 3.55268 8.13261 3.5 8 3.5H4Z" fill="black"/>
</svg>
